<?xml version="1.0" encoding="UTF-8"?>
<svg version="1.1" xmlns="http://www.w3.org/2000/svg" width="1254" height="1254">
<path d="M0 0 C413.82 0 827.64 0 1254 0 C1254 413.82 1254 827.64 1254 1254 C840.18 1254 426.36 1254 0 1254 C0 840.18 0 426.36 0 0 Z " fill="#020303" transform="translate(0,0)"/>
<path d="M0 0 C0.73412109 0.00451172 1.46824219 0.00902344 2.22460938 0.01367188 C3.96227869 0.02502919 5.6999038 0.04292758 7.4375 0.0625 C7.63827421 9.83016547 6.90248588 19.51536267 6.1875 29.25 C6.12158661 30.15444855 6.05567322 31.05889709 5.98776245 31.99075317 C4.74765183 48.78260116 2.8749957 65.39885041 0.4375 82.0625 C0.28168457 83.1541748 0.12586914 84.24584961 -0.03466797 85.37060547 C-1.12105009 92.94998889 -2.31582331 100.5079631 -3.5625 108.0625 C-3.75505371 109.25343262 -3.94760742 110.44436523 -4.14599609 111.67138672 C-9.70311846 145.62668238 -17.63497312 179.42575862 -28.5625 212.0625 C-28.92633789 213.17270508 -29.29017578 214.28291016 -29.66503906 215.42675781 C-45.99082465 265.14933219 -67.51461531 315.31505103 -99.5625 357.0625 C-100.32691406 358.07957031 -101.09132813 359.09664062 -101.87890625 360.14453125 C-115.0487115 377.58513111 -129.61698623 395.6951518 -146.75 409.375 C-150.64211589 412.50032675 -154.46057467 415.68868562 -158.25 418.9375 C-211.45502723 463.15012826 -284.17843856 484.36801222 -352.84130859 478.74609375 C-368.32460615 477.29165919 -383.68203807 474.60430278 -398.5625 470.0625 C-399.37299805 469.81661133 -400.18349609 469.57072266 -401.01855469 469.31738281 C-422.63539836 462.60057018 -442.1741935 452.5144963 -459.3828125 437.75 C-461.36664576 435.85844227 -461.36664576 435.85844227 -463.5625 436.0625 C-465.19386521 438.07942646 -465.19386521 438.07942646 -466.87109375 440.71484375 C-467.53004639 441.71016113 -468.18899902 442.70547852 -468.86791992 443.73095703 C-469.92329956 445.3491333 -469.92329956 445.3491333 -471 447 C-471.72356689 448.09940918 -472.44713379 449.19881836 -473.19262695 450.33154297 C-474.65286766 452.55115258 -476.10780395 454.77398169 -477.56054688 456.99853516 C-479.23479412 459.56095014 -480.91871993 462.11637477 -482.609375 464.66796875 C-494.61181566 482.87167042 -505.26316936 501.85656324 -515.5625 521.0625 C-516.34624236 522.51698733 -517.13008862 523.97141869 -517.9140625 525.42578125 C-521.26849966 531.66668334 -524.55089728 537.93358052 -527.65234375 544.3046875 C-528.5625 546.0625 -528.5625 546.0625 -529.5625 547.0625 C-533.65821088 547.39936742 -537.76721965 547.38754358 -541.875 547.4375 C-543.02935547 547.47488281 -544.18371094 547.51226563 -545.37304688 547.55078125 C-553.7909663 547.63872237 -553.7909663 547.63872237 -557.35546875 544.9765625 C-559.24168393 540.42278735 -559.37274385 537.26105389 -557.64746094 532.57958984 C-556.32618319 529.59002677 -554.90333451 526.67141525 -553.4375 523.75 C-552.63203735 522.11260864 -552.63203735 522.11260864 -551.81030273 520.44213867 C-535.25872198 487.098478 -516.3654999 455.00011327 -494.81640625 424.640625 C-494.29320801 423.89490234 -493.77000977 423.14917969 -493.23095703 422.38085938 C-492.04356767 420.73095458 -490.8158611 419.10974721 -489.56201172 417.50976562 C-485.60112892 412.47733196 -485.60112892 412.47733196 -484.453125 406.35546875 C-485.60263286 402.94337325 -486.85541312 399.66846699 -488.3125 396.375 C-497.73372916 373.84113279 -499.18542397 350.20448236 -498.5625 326.0625 C-498.53285156 324.83273437 -498.50320313 323.60296875 -498.47265625 322.3359375 C-497.67415162 306.01528199 -493.7534709 289.80339069 -489.5625 274.0625 C-489.25570312 272.81210937 -488.94890625 271.56171875 -488.6328125 270.2734375 C-486.3573736 261.19048719 -483.27079993 252.63968248 -479.5625 244.0625 C-479.23088867 243.28712891 -478.89927734 242.51175781 -478.55761719 241.71289062 C-467.84531984 216.79280752 -453.88548291 193.97304542 -436.5625 173.0625 C-436.12856934 172.52705566 -435.69463867 171.99161133 -435.24755859 171.43994141 C-422.94600046 156.27419383 -409.02555978 142.00121567 -393.5625 130.0625 C-392.35342606 129.06916145 -391.14798159 128.07139608 -389.9453125 127.0703125 C-368.19005709 108.99754518 -344.44499036 93.79846101 -319.45385742 80.59643555 C-317.31582422 79.46215685 -315.18410386 78.31596073 -313.0559082 77.16333008 C-304.70746387 72.64623512 -296.27628822 68.41647729 -287.625 64.5 C-286.6654541 64.06553055 -286.6654541 64.06553055 -285.68652344 63.62228394 C-261.21423036 52.6011927 -235.80541763 43.03414285 -209.96875 35.75244141 C-207.62387342 35.08009753 -205.29601868 34.36747713 -202.96875 33.63671875 C-165.26425511 21.83835888 -126.56386175 14.09019619 -87.5625 8.0625 C-86.17756348 7.8466626 -86.17756348 7.8466626 -84.76464844 7.62646484 C-71.81033745 5.64196424 -58.78189757 4.29388024 -45.75 2.9375 C-44.92605743 2.85096161 -44.10211487 2.76442322 -43.25320435 2.67526245 C-28.88175429 1.17497084 -14.46512961 -0.18133721 0 0 Z " fill="#020907" transform="translate(889.5625,346.9375)"/>
<path d="M0 0 C0.73412109 0.00451172 1.46824219 0.00902344 2.22460938 0.01367188 C3.96227869 0.02502919 5.6999038 0.04292758 7.4375 0.0625 C7.63827421 9.83016547 6.90248588 19.51536267 6.1875 29.25 C6.12158661 30.15444855 6.05567322 31.05889709 5.98776245 31.99075317 C4.74765183 48.78260116 2.8749957 65.39885041 0.4375 82.0625 C0.28168457 83.1541748 0.12586914 84.24584961 -0.03466797 85.37060547 C-1.12105009 92.94998889 -2.31582331 100.5079631 -3.5625 108.0625 C-3.75505371 109.25343262 -3.94760742 110.44436523 -4.14599609 111.67138672 C-9.70311846 145.62668238 -17.63497312 179.42575862 -28.5625 212.0625 C-28.92633789 213.17270508 -29.29017578 214.28291016 -29.66503906 215.42675781 C-45.99082465 265.14933219 -67.51461531 315.31505103 -99.5625 357.0625 C-100.32691406 358.07957031 -101.09132813 359.09664062 -101.87890625 360.14453125 C-115.0487115 377.58513111 -129.61698623 395.6951518 -146.75 409.375 C-150.64211589 412.50032675 -154.46057467 415.68868562 -158.25 418.9375 C-211.45502723 463.15012826 -284.17843856 484.36801222 -352.84130859 478.74609375 C-368.32460615 477.29165919 -383.68203807 474.60430278 -398.5625 470.0625 C-399.37299805 469.81661133 -400.18349609 469.57072266 -401.01855469 469.31738281 C-422.63539836 462.60057018 -442.1741935 452.5144963 -459.3828125 437.75 C-461.36664576 435.85844227 -461.36664576 435.85844227 -463.5625 436.0625 C-465.19386521 438.07942646 -465.19386521 438.07942646 -466.87109375 440.71484375 C-467.53004639 441.71016113 -468.18899902 442.70547852 -468.86791992 443.73095703 C-469.92329956 445.3491333 -469.92329956 445.3491333 -471 447 C-471.72356689 448.09940918 -472.44713379 449.19881836 -473.19262695 450.33154297 C-474.65286766 452.55115258 -476.10780395 454.77398169 -477.56054688 456.99853516 C-479.23479412 459.56095014 -480.91871993 462.11637477 -482.609375 464.66796875 C-494.61181566 482.87167042 -505.26316936 501.85656324 -515.5625 521.0625 C-516.34624236 522.51698733 -517.13008862 523.97141869 -517.9140625 525.42578125 C-521.26849966 531.66668334 -524.55089728 537.93358052 -527.65234375 544.3046875 C-528.5625 546.0625 -528.5625 546.0625 -529.5625 547.0625 C-533.65821088 547.39936742 -537.76721965 547.38754358 -541.875 547.4375 C-543.02935547 547.47488281 -544.18371094 547.51226563 -545.37304688 547.55078125 C-553.7909663 547.63872237 -553.7909663 547.63872237 -557.35546875 544.9765625 C-559.24168393 540.42278735 -559.37274385 537.26105389 -557.64746094 532.57958984 C-556.32618319 529.59002677 -554.90333451 526.67141525 -553.4375 523.75 C-552.63203735 522.11260864 -552.63203735 522.11260864 -551.81030273 520.44213867 C-535.25872198 487.098478 -516.3654999 455.00011327 -494.81640625 424.640625 C-494.29320801 423.89490234 -493.77000977 423.14917969 -493.23095703 422.38085938 C-492.04356767 420.73095458 -490.8158611 419.10974721 -489.56201172 417.50976562 C-485.60112892 412.47733196 -485.60112892 412.47733196 -484.453125 406.35546875 C-485.60263286 402.94337325 -486.85541312 399.66846699 -488.3125 396.375 C-497.73372916 373.84113279 -499.18542397 350.20448236 -498.5625 326.0625 C-498.53285156 324.83273437 -498.50320313 323.60296875 -498.47265625 322.3359375 C-497.67415162 306.01528199 -493.7534709 289.80339069 -489.5625 274.0625 C-489.25570312 272.81210937 -488.94890625 271.56171875 -488.6328125 270.2734375 C-486.3573736 261.19048719 -483.27079993 252.63968248 -479.5625 244.0625 C-479.23088867 243.28712891 -478.89927734 242.51175781 -478.55761719 241.71289062 C-467.84531984 216.79280752 -453.88548291 193.97304542 -436.5625 173.0625 C-436.12856934 172.52705566 -435.69463867 171.99161133 -435.24755859 171.43994141 C-422.94600046 156.27419383 -409.02555978 142.00121567 -393.5625 130.0625 C-392.35342606 129.06916145 -391.14798159 128.07139608 -389.9453125 127.0703125 C-368.19005709 108.99754518 -344.44499036 93.79846101 -319.45385742 80.59643555 C-317.31582422 79.46215685 -315.18410386 78.31596073 -313.0559082 77.16333008 C-304.70746387 72.64623512 -296.27628822 68.41647729 -287.625 64.5 C-286.6654541 64.06553055 -286.6654541 64.06553055 -285.68652344 63.62228394 C-261.21423036 52.6011927 -235.80541763 43.03414285 -209.96875 35.75244141 C-207.62387342 35.08009753 -205.29601868 34.36747713 -202.96875 33.63671875 C-165.26425511 21.83835888 -126.56386175 14.09019619 -87.5625 8.0625 C-86.17756348 7.8466626 -86.17756348 7.8466626 -84.76464844 7.62646484 C-71.81033745 5.64196424 -58.78189757 4.29388024 -45.75 2.9375 C-44.92605743 2.85096161 -44.10211487 2.76442322 -43.25320435 2.67526245 C-28.88175429 1.17497084 -14.46512961 -0.18133721 0 0 Z M-55.375 36.75 C-56.15685669 36.83764618 -56.93871338 36.92529236 -57.7442627 37.01559448 C-73.4596938 38.78809698 -89.00110571 41.23980585 -104.5625 44.0625 C-105.36445801 44.2054248 -106.16641602 44.34834961 -106.99267578 44.49560547 C-110.81905737 45.17815881 -114.63652966 45.89865122 -118.44970703 46.65136719 C-120.90009648 47.12819361 -123.35431651 47.58267601 -125.80859375 48.0390625 C-182.98023622 58.85660941 -237.99985358 77.17398678 -290.5625 102.0625 C-291.43358398 102.47467773 -292.30466797 102.88685547 -293.20214844 103.31152344 C-311.06625048 111.83491853 -328.34980527 121.69077891 -344.5625 133.0625 C-345.09713867 133.43407227 -345.63177734 133.80564453 -346.18261719 134.18847656 C-358.72644132 142.91989199 -370.74051738 152.12546611 -381.8984375 162.58203125 C-384.08000969 164.61326049 -386.2919688 166.57051566 -388.5625 168.5 C-397.82100521 176.56510121 -405.98674956 185.41352354 -413.5625 195.0625 C-414.43208999 196.13143342 -415.30324968 197.19909133 -416.17578125 198.265625 C-423.34257722 207.09632403 -429.65381279 216.34825434 -435.5625 226.0625 C-435.98917969 226.7632666 -436.41585937 227.4640332 -436.85546875 228.18603516 C-447.26448772 245.52505868 -455.35787878 264.51098947 -460.5625 284.0625 C-460.77745117 284.85688477 -460.99240234 285.65126953 -461.21386719 286.46972656 C-468.84570659 315.11362026 -474.04001143 354.01620179 -461.5625 382.0625 C-458.16800558 378.71028576 -454.890401 375.2854706 -451.6875 371.75 C-450.88570312 370.86699219 -450.08390625 369.98398437 -449.2578125 369.07421875 C-447.8614632 367.52812132 -446.48564229 365.97194826 -445.13745117 364.38354492 C-439.85675072 358.19279916 -434.1258619 352.47435775 -428.36547852 346.73510742 C-426.628564 345.003553 -424.89706111 343.26671641 -423.16601562 341.52929688 C-417.47011908 335.82931622 -411.75457929 330.22922605 -405.5625 325.0625 C-404.66204956 324.30199341 -404.66204956 324.30199341 -403.7434082 323.52612305 C-375.70094573 300.01207104 -345.03519673 281.65958787 -311.19485474 267.74304199 C-291.97004077 259.83643067 -273.15164202 251.20590353 -255.5625 240.0625 C-254.93762695 239.66885254 -254.31275391 239.27520508 -253.66894531 238.86962891 C-243.18028028 232.20864553 -233.28193788 224.79414221 -223.5625 217.0625 C-222.98741699 216.60746094 -222.41233398 216.15242187 -221.81982422 215.68359375 C-213.2499721 208.82975798 -205.4621573 201.16465493 -197.6875 193.4375 C-197.19481628 192.95017395 -196.70213257 192.4628479 -196.19451904 191.96075439 C-190.45524431 186.26890179 -185.10113691 180.49141054 -180.31201172 173.95996094 C-178.3722269 171.85613626 -177.35883145 171.33906014 -174.5625 170.9375 C-173.5725 170.97875 -172.5825 171.02 -171.5625 171.0625 C-170.19156252 177.65466747 -170.78678174 180.90755825 -174.3125 186.5625 C-174.92496582 187.59117187 -174.92496582 187.59117187 -175.54980469 188.640625 C-176.85650646 190.80235351 -178.20033419 192.93533563 -179.5625 195.0625 C-179.99175781 195.73410156 -180.42101562 196.40570312 -180.86328125 197.09765625 C-198.0982016 223.70504084 -219.83915468 246.60574454 -245.5625 265.0625 C-246.13742187 265.48354004 -246.71234375 265.90458008 -247.3046875 266.33837891 C-264.02704089 278.521948 -283.20097445 287.14684735 -301.9375 295.75 C-332.63284581 309.86745556 -361.7293323 326.9029702 -386.5625 350.0625 C-387.82867356 351.17200705 -389.09939849 352.27634529 -390.375 353.375 C-400.94573454 362.59491045 -411.37390835 372.08582804 -420.51953125 382.73828125 C-422.61223075 385.11907704 -424.76116034 387.43655284 -426.92602539 389.75146484 C-431.16790935 394.29535357 -435.37067535 398.86898633 -439.375 403.625 C-440.02082031 404.38941406 -440.66664063 405.15382813 -441.33203125 405.94140625 C-442.75156575 407.95063645 -442.75156575 407.95063645 -442.4765625 410.1171875 C-436.3315761 423.19497907 -413.31682316 432.32350837 -400.5625 437.0625 C-399.3971875 437.50078125 -398.231875 437.9390625 -397.03125 438.390625 C-347.80730229 455.85040132 -285.85273721 451.83755094 -238.5625 430.0625 C-237.72887939 429.68883301 -236.89525879 429.31516602 -236.03637695 428.93017578 C-213.74447082 418.91935251 -193.11992903 407.05463737 -174.5625 391.0625 C-173.46991937 390.1522404 -172.37609456 389.24347282 -171.28125 388.3359375 C-159.79910952 378.75251969 -148.98686935 368.52503451 -139.703125 356.765625 C-137.39022881 353.84496047 -134.98085459 351.02127747 -132.5625 348.1875 C-127.90926347 342.60792471 -123.7282144 336.78141227 -119.69677734 330.74560547 C-118.57361102 329.07898717 -117.42165542 327.43188909 -116.26953125 325.78515625 C-95.23040776 295.4990687 -80.45758124 261.43657206 -67.5625 227.0625 C-67.11471191 225.87479004 -66.66692383 224.68708008 -66.20556641 223.46337891 C-61.56902537 211.09985915 -57.42589614 198.74381526 -54.08007812 185.97167969 C-53.3017957 183.10084548 -52.40090095 180.27187299 -51.5 177.4375 C-46.714948 162.01476268 -43.565917 146.1666565 -40.25878906 130.37695312 C-39.65756163 127.51500937 -39.04548725 124.65570577 -38.4296875 121.796875 C-35.66705825 108.74972446 -33.84205079 95.59493274 -32.02832031 82.38720703 C-31.47432723 78.43318302 -30.87603191 74.48713231 -30.26708984 70.54125977 C-28.42956388 58.63166588 -27.38972649 47.13744876 -27.5625 35.0625 C-36.92608668 34.75646751 -46.09139467 35.68955964 -55.375 36.75 Z " fill="#00CE94" transform="translate(889.5625,346.9375)"/>
<path d="M0 0 C85.47 0 170.94 0 259 0 C259 82.83 259 165.66 259 251 C254.71 251 250.42 251 246 251 C246 172.46 246 93.92 246 13 C164.82 13 83.64 13 0 13 C0 8.71 0 4.42 0 0 Z " fill="#00C58A" transform="translate(771,224)"/>
<path d="M0 0 C85.47 0 170.94 0 259 0 C259 4.29 259 8.58 259 13 C177.82 13 96.64 13 13 13 C13 91.54 13 170.08 13 251 C8.71 251 4.42 251 0 251 C0 168.17 0 85.34 0 0 Z " fill="#00C68B" transform="translate(223,224)"/>
<path d="M0 0 C4.29 0 8.58 0 13 0 C13 77.88 13 155.76 13 236 C94.18 236 175.36 236 259 236 C259 240.29 259 244.58 259 249 C173.53 249 88.06 249 0 249 C0 166.83 0 84.66 0 0 Z " fill="#00C68C" transform="translate(223,781)"/>
<path d="M0 0 C4.29 0 8.58 0 13 0 C13 81.84 13 163.68 13 248 C-72.47 248 -157.94 248 -246 248 C-246 243.71 -246 239.42 -246 235 C-164.82 235 -83.64 235 0 235 C0 157.45 0 79.9 0 0 Z " fill="#00C58B" transform="translate(1017,782)"/>
<path d="M0 0 C0.33 0 0.66 0 1 0 C1 4.62 1 9.24 1 14 C-0.23928411 14.00423194 -1.47856821 14.00846388 -2.75540638 14.01282406 C-32.15453603 14.11343716 -61.55364283 14.21913445 -90.95273115 14.33111694 C-94.56899185 14.34488699 -98.18525271 14.35861402 -101.80151367 14.37231445 C-102.5214649 14.37504276 -103.24141613 14.37777106 -103.98318406 14.38058204 C-115.64999548 14.42469155 -127.31681658 14.4653133 -138.98364494 14.50465261 C-150.94937558 14.54507718 -162.91508822 14.58923475 -174.88079232 14.63687855 C-181.60405278 14.66354088 -188.32731046 14.68846068 -195.05059242 14.70907402 C-201.37305969 14.72862733 -207.69549252 14.75276723 -214.01792908 14.78049088 C-216.3435828 14.78986823 -218.66924409 14.79754104 -220.99490929 14.80341911 C-224.15995904 14.81166864 -227.32492495 14.82594215 -230.48994446 14.84178162 C-231.41892447 14.84275972 -232.34790449 14.84373783 -233.30503541 14.84474558 C-234.15050689 14.85022002 -234.99597837 14.85569446 -235.8670702 14.8613348 C-236.59803183 14.86399284 -237.32899347 14.86665089 -238.08210546 14.86938947 C-240.22188023 14.93449339 -240.22188023 14.93449339 -243 16 C-244.17220725 20.63227208 -244.13408238 25.09205152 -244.11352539 29.83460999 C-244.11367425 30.72471329 -244.11382311 31.61481659 -244.11397648 32.53189272 C-244.11328196 35.51485687 -244.1054393 38.49775944 -244.09765625 41.48071289 C-244.09573704 43.61958786 -244.09427325 45.75846329 -244.0932312 47.89733887 C-244.09006886 52.50482577 -244.08379793 57.11229438 -244.07516479 61.71977425 C-244.06164351 69.01154061 -244.05574801 76.30330088 -244.05102539 83.59507751 C-244.03897602 100.39928052 -244.0169597 117.20346774 -243.99479675 134.00765991 C-243.97459965 149.39046244 -243.95652678 164.77325953 -243.94658184 180.15607256 C-243.94161143 187.39752275 -243.93176863 194.63894474 -243.91815186 201.88038361 C-243.91066455 206.39767475 -243.90737096 210.91496208 -243.9051857 215.43225861 C-243.90332179 217.51871153 -243.89973716 219.60516378 -243.89425278 221.69161034 C-243.86838999 231.8556781 -243.92803539 241.87856496 -245 252 C-249.29 252 -253.58 252 -258 252 C-258 251.67 -258 251.34 -258 251 C-254.04 251 -250.08 251 -246 251 C-246 172.46 -246 93.92 -246 13 C-164.82 13 -83.64 13 0 13 C0 8.71 0 4.42 0 0 Z " fill="#00190F" transform="translate(482,224)"/>
<path d="M0 0 C80.85 0 161.7 0 245 0 C245 0.33 245 0.66 245 1 C235.70235635 2.13435304 235.70235635 2.13435304 231 2 C226.75290641 2 222.50581974 2.00325967 218.25872803 2.00672913 C192.64708992 2.02698614 167.03545337 2.04203109 141.42380905 2.05181217 C128.2660973 2.05697155 115.10839152 2.06401138 101.95068359 2.07543945 C90.46987029 2.08540608 78.98906131 2.09185793 67.5082438 2.09408849 C61.43265258 2.09539172 55.35707376 2.0984534 49.28148651 2.10573006 C43.56552108 2.11252124 37.84957314 2.11461063 32.13360405 2.11310768 C30.0374104 2.11338256 27.94121617 2.11536864 25.84502602 2.11920547 C22.97973146 2.12419255 20.11450267 2.12297983 17.24920654 2.12025452 C16.42312008 2.12316736 15.59703361 2.1260802 14.74591422 2.12908131 C9.7452085 2.11625595 4.95109639 1.71256281 0 1 C0 0.67 0 0.34 0 0 Z " fill="#00130B" transform="translate(772,237)"/>
<path d="M0 0 C0.8359375 1.6171875 0.8359375 1.6171875 1 4 C-0.72737034 6.23786466 -2.39374593 8.13891361 -4.375 10.125 C-8.11348286 13.74496191 -8.11348286 13.74496191 -11 18 C-11.66 18 -12.32 18 -13 18 C-13.2686084 18.59385498 -13.5372168 19.18770996 -13.81396484 19.79956055 C-15.00532232 22.00987445 -16.20211898 23.44647183 -17.9765625 25.20703125 C-18.56115234 25.79049316 -19.14574219 26.37395508 -19.74804688 26.97509766 C-20.36744141 27.58144043 -20.98683594 28.1877832 -21.625 28.8125 C-22.25728516 29.43688965 -22.88957031 30.0612793 -23.54101562 30.70458984 C-29.65693289 36.70916605 -35.7100442 42.44377762 -43 47 C-43 44 -43 44 -41.09375 41.984375 C-40.2378125 41.24703125 -39.381875 40.5096875 -38.5 39.75 C-37.58347656 38.95078125 -36.66695312 38.1515625 -35.72265625 37.328125 C-34.37494141 36.17570313 -34.37494141 36.17570313 -33 35 C-20.64942717 24.39437049 -10.23468445 12.62509828 0 0 Z " fill="#001C14" transform="translate(779,717)"/>
<path d="M0 0 C2.97 0 5.94 0 9 0 C9.22786458 2.24609375 9.45572917 4.4921875 9.68359375 6.73828125 C9.95265693 9.16087179 9.95265693 9.16087179 11 12 C10.53945588 13.67828914 10.07172603 15.35527362 9.55175781 17.01611328 C8.6014879 20.43288025 8.26757595 23.92040559 7.875 27.4375 C7.78863281 28.16904297 7.70226562 28.90058594 7.61328125 29.65429688 C7.40371607 31.43560094 7.20112132 33.21772281 7 35 C6.67 35 6.34 35 6 35 C5.84681411 27.4024052 6.3198338 19.93955113 7 12.375 C7.14308594 10.72564453 7.14308594 10.72564453 7.2890625 9.04296875 C7.52222324 6.36162018 7.7592704 3.68067779 8 1 C5.36 1 2.72 1 0 1 C0 0.67 0 0.34 0 0 Z " fill="#003A25" transform="translate(889,346)"/>
<path d="M0 0 C0.66 0.33 1.32 0.66 2 1 C0.7260411 3.03833424 -0.61061923 5.03852126 -2 7 C-2.66 7 -3.32 7 -4 7 C-4.33 7.99 -4.66 8.98 -5 10 C-6.7421875 11.82421875 -6.7421875 11.82421875 -8.875 13.6875 C-9.57367188 14.31011719 -10.27234375 14.93273437 -10.9921875 15.57421875 C-13 17 -13 17 -16 17 C-11.01595832 10.96668638 -5.58084697 5.4815829 0 0 Z " fill="#002117" transform="translate(503,513)"/>
<path d="M0 0 C0.66 0.33 1.32 0.66 2 1 C-2.31208202 6.42090311 -6.75341441 10.79229389 -13 14 C-13.66 13.67 -14.32 13.34 -15 13 C-13.43910974 11.58155991 -11.8762111 10.16532975 -10.3125 8.75 C-9.44238281 7.96109375 -8.57226562 7.1721875 -7.67578125 6.359375 C-5.17579137 4.15500436 -2.62054272 2.05866059 0 0 Z " fill="#002015" transform="translate(524,495)"/>
<path d="M0 0 C0.33 0 0.66 0 1 0 C1.02722517 2.20826378 1.04649729 4.41662638 1.0625 6.625 C1.07410156 7.85476563 1.08570313 9.08453125 1.09765625 10.3515625 C1.00751337 13.71930036 0.83734613 16.73674251 0 20 C-0.99 20.66 -1.98 21.32 -3 22 C-2.69003741 19.27052356 -2.37712025 16.54144015 -2.0625 13.8125 C-1.97548828 13.04357422 -1.88847656 12.27464844 -1.79882812 11.48242188 C-1.35035579 7.61227172 -0.8470999 3.80813376 0 0 Z " fill="#002B1A" transform="translate(890,424)"/>
<path d="M0 0 C0.66 0.33 1.32 0.66 2 1 C0.61240749 2.61130023 -0.78545623 4.21375841 -2.1875 5.8125 C-2.96480469 6.70582031 -3.74210937 7.59914063 -4.54296875 8.51953125 C-6.91416012 10.91334129 -8.96690251 12.54717179 -12 14 C-12.66 13.67 -13.32 13.34 -14 13 C-13.07316406 12.14535156 -12.14632813 11.29070313 -11.19140625 10.41015625 C-9.98176077 9.29428174 -8.7721259 8.17839573 -7.5625 7.0625 C-6.64500977 6.21655273 -6.64500977 6.21655273 -5.70898438 5.35351562 C-5.12568359 4.81533203 -4.54238281 4.27714844 -3.94140625 3.72265625 C-3.40201416 3.22515869 -2.86262207 2.72766113 -2.30688477 2.21508789 C-1.52614632 1.48918929 -0.75381738 0.75381738 0 0 Z " fill="#002115" transform="translate(501,698)"/>
<path d="M0 0 C1.90608098 3.21182149 2.22266247 5.53882603 2.125 9.25 C2.10695313 10.14203125 2.08890625 11.0340625 2.0703125 11.953125 C2.03550781 12.96632813 2.03550781 12.96632813 2 14 C1.01 14 0.02 14 -1 14 C-2.51516221 10.96967558 -2.17028053 8.34885038 -2 5 C-1 2.0625 -1 2.0625 0 0 Z " fill="#00B67D" transform="translate(333,877)"/>
<path d="M0 0 C0.66 0.99 1.32 1.98 2 3 C0.35 6.3 -1.3 9.6 -3 13 C-3.99 12.67 -4.98 12.34 -6 12 C-4.02 8.04 -2.04 4.08 0 0 Z " fill="#001A11" transform="translate(375,864)"/>
<path d="M0 0 C0 4.32035599 -2.06845243 6.9179135 -5 10 C-7.8125 10.9375 -7.8125 10.9375 -10 11 C-6.79239749 7.19364503 -3.59253891 3.45436433 0 0 Z " fill="#002A1D" transform="translate(486,712)"/>
<path d="M0 0 C1.32 0.66 2.64 1.32 4 2 C-1.94 3.65 -7.88 5.3 -14 7 C-14 6.34 -14 5.68 -14 5 C-10.17010894 3.19769832 -7.21878192 2.80377759 -3 3 C-3 2.34 -3 1.68 -3 1 C-2.01 0.67 -1.02 0.34 0 0 Z " fill="#022C18" transform="translate(678,381)"/>
<path d="M0 0 C0.66 0.99 1.32 1.98 2 3 C-3.38027025 4.19088986 -8.45291384 5.2919519 -14 5 C-14 4.34 -14 3.68 -14 3 C-6.57142857 1.71428571 -6.57142857 1.71428571 -3 3 C-3 2.34 -3 1.68 -3 1 C-2.01 0.67 -1.02 0.34 0 0 Z " fill="#012515" transform="translate(786,355)"/>
<path d="M0 0 C0.66 0.33 1.32 0.66 2 1 C-0.31 3.64 -2.62 6.28 -5 9 C-5.99 8.67 -6.98 8.34 -8 8 C-5.33333333 5.33333333 -2.66666667 2.66666667 0 0 Z " fill="#00C28A" transform="translate(674,556)"/>
<path d="M0 0 C0.66 0.99 1.32 1.98 2 3 C-0.31 5.64 -2.62 8.28 -5 11 C-5.66 10.67 -6.32 10.34 -7 10 C-3.535 5.05 -3.535 5.05 0 0 Z " fill="#001D13" transform="translate(794,697)"/>
<path d="M0 0 C-0.33 0.99 -0.66 1.98 -1 3 C-2.6875 3.625 -2.6875 3.625 -5 4 C-6.546875 4.3403125 -6.546875 4.3403125 -8.125 4.6875 C-9.07375 4.790625 -10.0225 4.89375 -11 5 C-11.66 4.34 -12.32 3.68 -13 3 C-11.2092015 2.49689942 -9.41733089 1.99761372 -7.625 1.5 C-6.62726562 1.2215625 -5.62953125 0.943125 -4.6015625 0.65625 C-2 0 -2 0 0 0 Z " fill="#002A1C" transform="translate(643,813)"/>
<path d="M0 0 C0.66 0.99 1.32 1.98 2 3 C-0.31 4.98 -2.62 6.96 -5 9 C-5 4.61031544 -2.87194899 3.23094261 0 0 Z " fill="#002116" transform="translate(486,530)"/>
<path d="M0 0 C0.99 0 1.98 0 3 0 C2.67 4.95 2.34 9.9 2 15 C1.67 15 1.34 15 1 15 C0.67 10.05 0.34 5.1 0 0 Z " fill="#023722" transform="translate(859,391)"/>
<path d="M0 0 C1 4 1 4 -0.9375 7.25 C-1.618125 8.1575 -2.29875 9.065 -3 10 C-3.66 9.34 -4.32 8.68 -5 8 C-3.35 5.36 -1.7 2.72 0 0 Z " fill="#001F16" transform="translate(804,682)"/>
<path d="M0 0 C1.46726798 3.81489674 0.43336419 6.29011622 -1 10 C-1.99 10 -2.98 10 -4 10 C-2.8905928 6.51329166 -1.73662334 3.22515763 0 0 Z " fill="#00AD7B" transform="translate(347,849)"/>
<path d="M0 0 C-1.76956458 2.14210449 -2.87575652 2.96060573 -5.5625 3.8125 C-6.7690625 3.9053125 -6.7690625 3.9053125 -8 4 C-8.66 3.34 -9.32 2.68 -10 2 C-8.71211992 1.46987262 -7.41953322 0.9511671 -6.125 0.4375 C-5.40570312 0.14746094 -4.68640625 -0.14257812 -3.9453125 -0.44140625 C-2 -1 -2 -1 0 0 Z " fill="#002519" transform="translate(660,808)"/>
<path d="M0 0 C0.66 0.66 1.32 1.32 2 2 C-0.31 3.65 -2.62 5.3 -5 7 C-5.99 6.34 -6.98 5.68 -8 5 C-4.04 2.525 -4.04 2.525 0 0 Z " fill="#002016" transform="translate(715,777)"/>
<path d="M0 0 C-2.22050056 2.22050056 -2.9597814 2.57774742 -6 3 C-8.00946222 2.72949547 -10.01354224 2.40632091 -12 2 C-12 1.67 -12 1.34 -12 1 C-7.9472484 0.01751476 -4.16138263 -0.08159574 0 0 Z " fill="#002818" transform="translate(600,823)"/>
<path d="M0 0 C0.33 1.32 0.66 2.64 1 4 C-0.9375 6.75 -0.9375 6.75 -3 9 C-3.66 8.67 -4.32 8.34 -5 8 C-3.35 5.36 -1.7 2.72 0 0 Z " fill="#002317" transform="translate(412,802)"/>
<path d="M0 0 C0.66 0.66 1.32 1.32 2 2 C-0.31 3.65 -2.62 5.3 -5 7 C-5 6.01 -5 5.02 -5 4 C-2.5 1.8125 -2.5 1.8125 0 0 Z " fill="#012116" transform="translate(727,768)"/>
<path d="M0 0 C0.66 0 1.32 0 2 0 C2.33 0.66 2.66 1.32 3 2 C3.99 2 4.98 2 6 2 C4.68 3.65 3.36 5.3 2 7 C1.34 4.69 0.68 2.38 0 0 Z " fill="#002715" transform="translate(426,722)"/>
<path d="M0 0 C0.66 0.33 1.32 0.66 2 1 C0.35 2.98 -1.3 4.96 -3 7 C-3.66 6.34 -4.32 5.68 -5 5 C-3.35 3.35 -1.7 1.7 0 0 Z " fill="#002116" transform="translate(508,692)"/>
<path d="M0 0 C-0.33 0.99 -0.66 1.98 -1 3 C-2.84765625 3.73046875 -2.84765625 3.73046875 -5.0625 4.1875 C-5.79597656 4.34605469 -6.52945313 4.50460937 -7.28515625 4.66796875 C-8.13400391 4.83232422 -8.13400391 4.83232422 -9 5 C-6.45523312 2.20075644 -3.92372883 0 0 0 Z " fill="#003423" transform="translate(587,456)"/>
</svg>
